<svg width="180" height="50" viewBox="0 0 120 40" fill="none" xmlns="http://www.w3.org/2000/svg">
    <path d="M20 8C14.4772 8 10 12.4772 10 18C10 23.5228 14.4772 28 20 28C25.5228 28 30 23.5228 30 18C30 12.4772 25.5228 8 20 8ZM20 26C15.5817 26 12 22.4183 12 18C12 13.5817 15.5817 10 20 10C24.4183 10 28 13.5817 28 18C28 22.4183 24.4183 26 20 26Z" fill="#7E57C2"/>
    <path d="M20 12C20.5523 12 21 12.4477 21 13V23C21 23.5523 20.5523 24 20 24C19.4477 24 19 23.5523 19 23V13C19 12.4477 19.4477 12 20 12Z" fill="#7E57C2"/>
    <path d="M16 18C16 17.4477 16.4477 17 17 17H23C23.5523 17 24 17.4477 24 18C24 18.5523 23.5523 19 23 19H17C16.4477 19 16 18.5523 16 18Z" fill="#7E57C2"/>
    <text x="35" y="24" font-family="Arial" font-size="20" font-weight="bold" fill="#333333">YogaBliss</text>
</svg> 