<svg width="48" height="48" viewBox="0 0 48 48" fill="none" xmlns="http://www.w3.org/2000/svg">
    <path d="M40 16H32V8H6C3.8 8 2 9.8 2 12V36H6C6 39.3 8.7 42 12 42C15.3 42 18 39.3 18 36H30C30 39.3 32.7 42 36 42C39.3 42 42 39.3 42 36H46V24L40 16ZM12 38.5C10.1 38.5 8.5 36.9 8.5 35C8.5 33.1 10.1 31.5 12 31.5C13.9 31.5 15.5 33.1 15.5 35C15.5 36.9 13.9 38.5 12 38.5ZM39 22L43 28H32V22H39ZM36 38.5C34.1 38.5 32.5 36.9 32.5 35C32.5 33.1 34.1 31.5 36 31.5C37.9 31.5 39.5 33.1 39.5 35C39.5 36.9 37.9 38.5 36 38.5Z" fill="#7E57C2"/>
</svg> 